<svg xmlns="http://www.w3.org/2000/svg" xmlns:xlink="http://www.w3.org/1999/xlink" width="2111" zoomAndPan="magnify" viewBox="0 0 1583.25 1586.999935" height="2116" preserveAspectRatio="xMidYMid meet" version="1.0"><path fill="#7b7979" d="M 215.878906 1132.804688 C 200.039062 1132.804688 186.496094 1129.550781 175.253906 1123.039062 C 164.003906 1116.53125 155.386719 1107.246094 149.390625 1095.183594 C 143.394531 1083.125 140.398438 1068.878906 140.398438 1052.457031 C 140.398438 1040.175781 142.097656 1029.117188 145.503906 1019.273438 C 148.90625 1009.433594 153.832031 1001 160.269531 993.972656 C 166.707031 986.941406 174.621094 981.578125 184.023438 977.878906 C 193.417969 974.179688 204.039062 972.332031 215.878906 972.332031 C 224.605469 972.332031 233.003906 973.515625 241.070312 975.882812 C 249.136719 978.25 256.132812 981.652344 262.050781 986.089844 C 264.566406 987.722656 266.230469 989.679688 267.046875 991.972656 C 267.859375 994.265625 268.007812 996.449219 267.492188 998.519531 C 266.972656 1000.59375 265.972656 1002.332031 264.492188 1003.734375 C 263.015625 1005.144531 261.128906 1005.921875 258.832031 1006.070312 C 256.539062 1006.214844 254.058594 1005.402344 251.394531 1003.625 C 246.511719 999.929688 241.109375 997.191406 235.191406 995.414062 C 229.269531 993.636719 223.050781 992.75 216.542969 992.75 C 205.296875 992.75 195.820312 995.082031 188.128906 999.742188 C 180.433594 1004.402344 174.585938 1011.171875 170.589844 1020.046875 C 166.597656 1028.929688 164.597656 1039.734375 164.597656 1052.457031 C 164.597656 1065.183594 166.597656 1076.023438 170.589844 1084.972656 C 174.585938 1093.925781 180.433594 1100.730469 188.128906 1105.390625 C 195.820312 1110.054688 205.296875 1112.386719 216.542969 1112.386719 C 223.050781 1112.386719 229.308594 1111.464844 235.300781 1109.609375 C 241.296875 1107.761719 246.957031 1104.988281 252.285156 1101.285156 C 254.949219 1099.660156 257.351562 1098.925781 259.496094 1099.066406 C 261.640625 1099.214844 263.453125 1099.953125 264.9375 1101.285156 C 266.417969 1102.617188 267.414062 1104.28125 267.9375 1106.28125 C 268.449219 1108.28125 268.378906 1110.351562 267.710938 1112.496094 C 267.046875 1114.640625 265.601562 1116.457031 263.382812 1117.933594 C 257.316406 1122.816406 250.136719 1126.519531 241.851562 1129.03125 C 233.558594 1131.546875 224.902344 1132.804688 215.878906 1132.804688 " fill-opacity="1" fill-rule="nonzero"/><path fill="#7b7979" d="M 354.136719 1112.828125 C 364.496094 1112.828125 373.335938 1110.464844 380.664062 1105.726562 C 387.988281 1100.992188 393.613281 1094.113281 397.535156 1085.085938 C 401.453125 1076.0625 403.417969 1065.183594 403.417969 1052.457031 C 403.417969 1033.367188 399.125 1018.570312 390.542969 1008.066406 C 381.957031 997.558594 369.820312 992.308594 354.136719 992.308594 C 343.773438 992.308594 334.929688 994.632812 327.605469 999.296875 C 320.28125 1003.960938 314.65625 1010.804688 310.734375 1019.832031 C 306.8125 1028.855469 304.855469 1039.734375 304.855469 1052.457031 C 304.855469 1071.402344 309.179688 1086.191406 317.839844 1096.847656 C 326.496094 1107.503906 338.597656 1112.828125 354.136719 1112.828125 M 354.136719 1132.804688 C 339.335938 1132.804688 326.417969 1129.511719 315.398438 1122.929688 C 304.371094 1116.347656 295.863281 1107.023438 289.867188 1094.964844 C 283.875 1082.902344 280.878906 1068.738281 280.878906 1052.457031 C 280.878906 1040.175781 282.578125 1029.117188 285.984375 1019.273438 C 289.386719 1009.433594 294.269531 1001 300.632812 993.972656 C 306.996094 986.945312 314.691406 981.578125 323.722656 977.878906 C 332.746094 974.179688 342.882812 972.332031 354.136719 972.332031 C 369.085938 972.332031 382.027344 975.585938 392.984375 982.09375 C 403.933594 988.609375 412.40625 997.855469 418.402344 1009.84375 C 424.394531 1021.824219 427.394531 1035.957031 427.394531 1052.234375 C 427.394531 1064.519531 425.6875 1075.617188 422.285156 1085.53125 C 418.878906 1095.445312 413.960938 1103.953125 407.523438 1111.054688 C 401.085938 1118.15625 393.347656 1123.558594 384.324219 1127.257812 C 375.296875 1130.957031 365.234375 1132.804688 354.136719 1132.804688 " fill-opacity="1" fill-rule="nonzero"/><path fill="#7b7979" d="M 476.832031 1111.5 L 507.6875 1111.5 C 517.453125 1111.5 525.925781 1110.277344 533.105469 1107.835938 C 540.28125 1105.394531 546.3125 1101.730469 551.195312 1096.847656 C 556.082031 1091.964844 559.703125 1085.828125 562.074219 1078.425781 C 564.4375 1071.027344 565.625 1062.371094 565.625 1052.457031 C 565.625 1032.78125 560.777344 1018.054688 551.085938 1008.289062 C 541.394531 998.519531 526.925781 993.636719 507.6875 993.636719 L 476.832031 993.636719 Z M 466.171875 1130.808594 C 462.179688 1130.808594 459.105469 1129.738281 456.960938 1127.589844 C 454.8125 1125.445312 453.742188 1122.375 453.742188 1118.378906 L 453.742188 986.753906 C 453.742188 982.761719 454.8125 979.691406 456.960938 977.546875 C 459.105469 975.402344 462.179688 974.328125 466.171875 974.328125 L 509.019531 974.328125 C 534.769531 974.328125 554.636719 981.023438 568.625 994.414062 C 582.609375 1007.808594 589.605469 1027.152344 589.605469 1052.457031 C 589.605469 1065.035156 587.824219 1076.203125 584.273438 1085.972656 C 580.722656 1095.738281 575.503906 1103.914062 568.625 1110.5 C 561.742188 1117.085938 553.339844 1122.117188 543.425781 1125.59375 C 533.507812 1129.070312 522.039062 1130.808594 509.019531 1130.808594 Z M 466.171875 1130.808594 " fill-opacity="1" fill-rule="nonzero"/><path fill="#7b7979" d="M 628.050781 1130.808594 C 624.054688 1130.808594 620.980469 1129.738281 618.839844 1127.589844 C 616.691406 1125.449219 615.617188 1122.375 615.617188 1118.382812 L 615.617188 986.757812 C 615.617188 982.761719 616.691406 979.695312 618.839844 977.546875 C 620.980469 975.402344 624.054688 974.328125 628.050781 974.328125 L 709.078125 974.328125 C 712.1875 974.328125 714.550781 975.105469 716.179688 976.65625 C 717.808594 978.210938 718.621094 980.472656 718.621094 983.429688 C 718.621094 986.539062 717.808594 988.90625 716.179688 990.53125 C 714.550781 992.160156 712.1875 992.972656 709.078125 992.972656 L 637.816406 992.972656 L 637.816406 1042.027344 L 704.195312 1042.027344 C 707.445312 1042.027344 709.851562 1042.839844 711.40625 1044.46875 C 712.964844 1046.097656 713.742188 1048.390625 713.742188 1051.347656 C 713.742188 1054.453125 712.964844 1056.785156 711.40625 1058.339844 C 709.851562 1059.894531 707.445312 1060.671875 704.195312 1060.671875 L 637.816406 1060.671875 L 637.816406 1112.164062 L 709.078125 1112.164062 C 712.1875 1112.164062 714.550781 1112.976562 716.179688 1114.605469 C 717.808594 1116.234375 718.621094 1118.527344 718.621094 1121.488281 C 718.621094 1124.59375 717.808594 1126.925781 716.179688 1128.480469 C 714.550781 1130.03125 712.1875 1130.808594 709.078125 1130.808594 Z M 628.050781 1130.808594 " fill-opacity="1" fill-rule="nonzero"/><path fill="#7b7979" d="M 800.023438 1132.359375 C 796.769531 1132.359375 794.140625 1131.546875 792.148438 1129.921875 C 790.144531 1128.292969 788.480469 1125.777344 787.148438 1122.371094 L 739.417969 986.3125 C 738.089844 982.464844 738.347656 979.246094 740.199219 976.65625 C 742.046875 974.070312 745.113281 972.773438 749.410156 972.773438 C 752.664062 972.773438 755.21875 973.515625 757.070312 974.992188 C 758.917969 976.472656 760.363281 978.84375 761.398438 982.09375 L 804.6875 1109.496094 L 796.472656 1109.496094 L 840.875 982.539062 C 842.203125 979.285156 843.757812 976.84375 845.535156 975.214844 C 847.308594 973.589844 849.675781 972.773438 852.636719 972.773438 C 855.597656 972.773438 857.925781 973.589844 859.632812 975.214844 C 861.332031 976.84375 862.847656 979.359375 864.179688 982.761719 L 907.691406 1109.496094 L 900.367188 1109.496094 L 944.101562 982.09375 C 945.136719 978.988281 946.574219 976.65625 948.425781 975.101562 C 950.277344 973.546875 952.757812 972.773438 955.863281 972.773438 C 959.710938 972.773438 962.558594 974.070312 964.410156 976.65625 C 966.257812 979.246094 966.441406 982.464844 964.964844 986.3125 L 917.015625 1122.59375 C 915.679688 1125.851562 914.054688 1128.292969 912.132812 1129.921875 C 910.207031 1131.546875 907.613281 1132.359375 904.359375 1132.359375 C 900.953125 1132.359375 898.292969 1131.546875 896.367188 1129.921875 C 894.445312 1128.292969 892.890625 1125.777344 891.707031 1122.371094 L 849.75 1002.292969 L 854.636719 1002.292969 L 812.238281 1122.59375 C 811.050781 1125.851562 809.53125 1128.292969 807.683594 1129.921875 C 805.832031 1131.546875 803.277344 1132.359375 800.023438 1132.359375 " fill-opacity="1" fill-rule="nonzero"/><path fill="#7b7979" d="M 1035.273438 999.851562 L 1001.75 1079.3125 L 996.203125 1073.988281 L 1074.566406 1073.988281 L 1069.457031 1079.3125 L 1035.71875 999.851562 Z M 971.117188 1132.359375 C 968.152344 1132.359375 965.789062 1131.695312 964.011719 1130.363281 C 962.238281 1129.03125 961.199219 1127.253906 960.90625 1125.035156 C 960.605469 1122.816406 961.054688 1120.300781 962.238281 1117.488281 L 1022.394531 982.539062 C 1023.875 978.988281 1025.761719 976.46875 1028.058594 974.992188 C 1030.351562 973.515625 1032.902344 972.773438 1035.71875 972.773438 C 1038.378906 972.773438 1040.859375 973.515625 1043.152344 974.992188 C 1045.445312 976.46875 1047.332031 978.988281 1048.8125 982.539062 L 1108.972656 1117.488281 C 1110.308594 1120.300781 1110.820312 1122.855469 1110.527344 1125.148438 C 1110.230469 1127.441406 1109.265625 1129.21875 1107.644531 1130.476562 C 1106.011719 1131.726562 1103.71875 1132.359375 1100.761719 1132.359375 C 1097.503906 1132.359375 1094.910156 1131.542969 1092.992188 1129.917969 C 1091.0625 1128.292969 1089.359375 1125.777344 1087.882812 1122.371094 L 1072.347656 1086.414062 L 1082.78125 1092.628906 L 988.210938 1092.628906 L 998.421875 1086.414062 L 983.101562 1122.371094 C 981.621094 1125.921875 979.996094 1128.476562 978.21875 1130.03125 C 976.441406 1131.585938 974.074219 1132.359375 971.117188 1132.359375 " fill-opacity="1" fill-rule="nonzero"/><path fill="#7b7979" d="M 1173.261719 1132.359375 C 1170.003906 1132.359375 1167.304688 1131.585938 1165.160156 1130.03125 C 1163.011719 1128.476562 1161.277344 1126.144531 1159.941406 1123.039062 L 1100.226562 987.863281 C 1099.042969 984.757812 1098.746094 982.09375 1099.335938 979.875 C 1099.925781 977.65625 1101.152344 975.917969 1103.003906 974.65625 C 1104.851562 973.40625 1107.109375 972.773438 1109.773438 972.773438 C 1113.175781 972.773438 1115.765625 973.515625 1117.542969 974.992188 C 1119.316406 976.472656 1120.796875 978.691406 1121.984375 981.652344 L 1177.921875 1111.273438 L 1169.707031 1111.273438 L 1225.210938 981.429688 C 1226.539062 978.621094 1228.128906 976.472656 1229.980469 974.992188 C 1231.832031 973.515625 1234.382812 972.773438 1237.640625 972.773438 C 1240.304688 972.773438 1242.484375 973.40625 1244.191406 974.65625 C 1245.886719 975.917969 1246.964844 977.65625 1247.410156 979.875 C 1247.851562 982.09375 1247.410156 984.757812 1246.074219 987.863281 L 1186.582031 1123.039062 C 1185.25 1126.144531 1183.542969 1128.476562 1181.476562 1130.03125 C 1179.402344 1131.585938 1176.664062 1132.359375 1173.261719 1132.359375 " fill-opacity="1" fill-rule="nonzero"/><path fill="#7b7979" d="M 1279.839844 1130.808594 C 1275.84375 1130.808594 1272.773438 1129.738281 1270.628906 1127.589844 C 1268.480469 1125.449219 1267.410156 1122.375 1267.410156 1118.382812 L 1267.410156 986.757812 C 1267.410156 982.761719 1268.480469 979.695312 1270.628906 977.546875 C 1272.773438 975.402344 1275.84375 974.328125 1279.839844 974.328125 L 1360.867188 974.328125 C 1363.976562 974.328125 1366.34375 975.105469 1367.96875 976.65625 C 1369.597656 978.210938 1370.414062 980.472656 1370.414062 983.429688 C 1370.414062 986.539062 1369.597656 988.90625 1367.96875 990.53125 C 1366.34375 992.160156 1363.976562 992.972656 1360.867188 992.972656 L 1289.609375 992.972656 L 1289.609375 1042.027344 L 1355.984375 1042.027344 C 1359.238281 1042.027344 1361.644531 1042.839844 1363.199219 1044.46875 C 1364.753906 1046.097656 1365.535156 1048.390625 1365.535156 1051.347656 C 1365.535156 1054.453125 1364.753906 1056.785156 1363.199219 1058.339844 C 1361.644531 1059.894531 1359.238281 1060.671875 1355.984375 1060.671875 L 1289.609375 1060.671875 L 1289.609375 1112.164062 L 1360.867188 1112.164062 C 1363.976562 1112.164062 1366.34375 1112.976562 1367.96875 1114.605469 C 1369.597656 1116.234375 1370.414062 1118.527344 1370.414062 1121.488281 C 1370.414062 1124.59375 1369.597656 1126.925781 1367.96875 1128.480469 C 1366.34375 1130.03125 1363.976562 1130.808594 1360.867188 1130.808594 Z M 1279.839844 1130.808594 " fill-opacity="1" fill-rule="nonzero"/><path fill="#4dae30" d="M 979.542969 513.210938 L 943.039062 467.796875 L 868.640625 524.722656 C 858.925781 532.15625 857.625 546.359375 865.734375 556.449219 L 902.234375 601.859375 L 976.632812 544.933594 C 986.347656 537.5 987.652344 523.296875 979.542969 513.210938 " fill-opacity="1" fill-rule="nonzero"/><path fill="#00adef" d="M 901.074219 641.3125 L 881.878906 617.429688 L 858.882812 635.027344 L 878.074219 658.90625 Z M 901.074219 641.3125 " fill-opacity="1" fill-rule="nonzero"/><path fill="#4dae30" d="M 852.765625 432.761719 L 802.8125 411.589844 L 768.125 494.132812 C 763.589844 504.914062 768.914062 517.464844 780.007812 522.171875 L 829.960938 543.347656 L 864.652344 460.796875 C 869.183594 450.019531 863.863281 437.464844 852.765625 432.761719 " fill-opacity="1" fill-rule="nonzero"/><path fill="#00adef" d="M 846.734375 577.066406 L 820.46875 565.929688 L 809.746094 591.445312 L 836.011719 602.582031 Z M 846.734375 577.066406 " fill-opacity="1" fill-rule="nonzero"/><path fill="#4dae30" d="M 713.980469 424.195312 L 664.019531 429.671875 L 672.984375 515.261719 C 674.160156 526.4375 684.105469 534.515625 695.199219 533.296875 L 745.160156 527.824219 L 736.191406 442.234375 C 735.023438 431.058594 725.078125 422.980469 713.980469 424.195312 " fill-opacity="1" fill-rule="nonzero"/><path fill="#00adef" d="M 773.882812 548.359375 L 747.613281 551.238281 L 750.386719 577.699219 L 776.652344 574.820312 Z M 773.882812 548.359375 " fill-opacity="1" fill-rule="nonzero"/><path fill="#4dae30" d="M 597.738281 481.675781 L 559.738281 509.5625 L 605.429688 577.363281 C 611.394531 586.21875 623.070312 588.375 631.511719 582.183594 L 669.515625 554.292969 L 623.828125 486.488281 C 617.859375 477.636719 606.179688 475.480469 597.738281 481.675781 " fill-opacity="1" fill-rule="nonzero"/><path fill="#00adef" d="M 701.996094 558.179688 L 682.015625 572.84375 L 696.136719 593.804688 L 716.117188 579.140625 Z M 701.996094 558.179688 " fill-opacity="1" fill-rule="nonzero"/><path fill="#4dae30" d="M 529.410156 584.199219 L 511.160156 625.367188 L 578.597656 661.089844 C 587.402344 665.757812 597.828125 662.121094 601.886719 652.980469 L 620.140625 611.816406 L 552.699219 576.089844 C 543.894531 571.425781 533.464844 575.054688 529.410156 584.199219 " fill-opacity="1" fill-rule="nonzero"/><path fill="#00adef" d="M 648.1875 599.941406 L 638.589844 621.585938 L 659.4375 632.628906 L 669.035156 610.984375 Z M 648.1875 599.941406 " fill-opacity="1" fill-rule="nonzero"/><path fill="#4dae30" d="M 520.105469 702.261719 L 523.804688 745.386719 L 594.460938 744 C 603.6875 743.816406 610.496094 735.90625 609.679688 726.324219 L 605.980469 683.199219 L 535.324219 684.585938 C 526.097656 684.765625 519.285156 692.683594 520.105469 702.261719 " fill-opacity="1" fill-rule="nonzero"/><path fill="#00adef" d="M 623.363281 660.140625 L 625.304688 682.816406 L 647.148438 682.386719 L 645.203125 659.710938 Z M 623.363281 660.140625 " fill-opacity="1" fill-rule="nonzero"/><path fill="#4dae30" d="M 565.574219 805.886719 L 587.929688 840.433594 L 644.527344 806.328125 C 651.917969 801.878906 653.886719 792.046875 648.917969 784.375 L 626.5625 749.828125 L 569.964844 783.929688 C 562.574219 788.382812 560.609375 798.214844 565.574219 805.886719 " fill-opacity="1" fill-rule="nonzero"/><path fill="#00adef" d="M 630.285156 722.335938 L 642.039062 740.5 L 659.539062 729.960938 L 647.78125 711.796875 Z M 630.285156 722.335938 " fill-opacity="1" fill-rule="nonzero"/><path fill="#4dae30" d="M 648.925781 871.84375 L 682.539062 890.472656 L 713.066406 835.417969 C 717.050781 828.230469 714.226562 819.046875 706.761719 814.910156 L 673.144531 796.277344 L 642.621094 851.332031 C 638.636719 858.523438 641.460938 867.707031 648.925781 871.84375 " fill-opacity="1" fill-rule="nonzero"/><path fill="#00adef" d="M 663.816406 771.417969 L 681.496094 781.214844 L 690.929688 764.195312 L 673.253906 754.402344 Z M 663.816406 771.417969 " fill-opacity="1" fill-rule="nonzero"/><path fill="#4dae30" d="M 746.03125 888.460938 L 781.617188 888.460938 L 781.617188 827.933594 C 781.617188 820.03125 775.207031 813.621094 767.304688 813.621094 L 731.71875 813.621094 L 731.71875 874.148438 C 731.71875 882.054688 738.125 888.460938 746.03125 888.460938 " fill-opacity="1" fill-rule="nonzero"/><path fill="#00adef" d="M 713.007812 797.0625 L 731.722656 797.0625 L 731.722656 778.351562 L 713.007812 778.351562 Z M 713.007812 797.0625 " fill-opacity="1" fill-rule="nonzero"/><path fill="#00adef" d="M 748.789062 797.0625 L 767.503906 797.0625 L 767.503906 778.351562 L 748.789062 778.351562 Z M 748.789062 797.0625 " fill-opacity="1" fill-rule="nonzero"/><path fill="#00adef" d="M 783.546875 797.0625 L 802.261719 797.0625 L 802.261719 778.351562 L 783.546875 778.351562 Z M 783.546875 797.0625 " fill-opacity="1" fill-rule="nonzero"/><path fill="#00adef" d="M 820.238281 797.0625 L 838.953125 797.0625 L 838.953125 778.351562 L 820.238281 778.351562 Z M 820.238281 797.0625 " fill-opacity="1" fill-rule="nonzero"/><path fill="#00adef" d="M 858.855469 797.0625 L 877.566406 797.0625 L 877.566406 778.351562 L 858.855469 778.351562 Z M 858.855469 797.0625 " fill-opacity="1" fill-rule="nonzero"/><path fill="#00adef" d="M 899.398438 797.0625 L 918.113281 797.0625 L 918.113281 778.351562 L 899.398438 778.351562 Z M 899.398438 797.0625 " fill-opacity="1" fill-rule="nonzero"/><path fill="#00adef" d="M 941.878906 797.0625 L 960.589844 797.0625 L 960.589844 778.351562 L 941.878906 778.351562 Z M 941.878906 797.0625 " fill-opacity="1" fill-rule="nonzero"/></svg>